<?xml version="1.0" standalone="no"?>
<!DOCTYPE svg PUBLIC "-//W3C//DTD SVG 20010904//EN"
 "http://www.w3.org/TR/2001/REC-SVG-20010904/DTD/svg10.dtd">
<svg version="1.0" xmlns="http://www.w3.org/2000/svg"
 width="100.000000pt" height="100.000000pt" viewBox="0 0 100.000000 100.000000"
 preserveAspectRatio="xMidYMid meet">

<g transform="translate(0.000000,100.000000) scale(0.100000,-0.100000)"
fill="#000000" stroke="none">
<path d="M722 875 c0 -16 2 -22 5 -12 2 9 2 23 0 30 -3 6 -5 -1 -5 -18z"/>
<path d="M660 886 c0 -2 9 -6 20 -9 11 -3 18 -1 14 4 -5 9 -34 13 -34 5z"/>
<path d="M287 873 c-14 -14 -6 -31 12 -26 12 3 26 -5 40 -23 27 -34 27 -25 1
18 -11 18 -20 29 -20 24 0 -5 -6 -3 -13 3 -8 6 -17 8 -20 4z"/>
<path d="M661 836 c-13 -14 -21 -31 -18 -38 4 -10 6 -10 6 1 1 8 11 25 23 38
12 13 19 23 16 23 -2 0 -15 -11 -27 -24z"/>
<path d="M712 834 c10 -10 20 -16 22 -13 3 3 -5 11 -17 18 -21 13 -21 12 -5
-5z"/>
<path d="M161 827 c2 -1 13 -9 24 -17 19 -14 19 -14 6 3 -7 9 -18 17 -24 17
-6 0 -8 -1 -6 -3z"/>
<path d="M210 795 c0 -8 -7 -15 -16 -15 -8 0 -13 -4 -9 -10 3 -5 12 -7 19 -4
7 3 23 -4 37 -14 l23 -20 -19 -36 c-17 -31 -24 -36 -45 -31 -29 8 -30 8 -52 6
-12 -1 -15 -6 -11 -17 4 -11 8 -12 13 -4 9 15 80 2 87 -16 3 -8 12 -14 21 -14
12 0 13 3 4 12 -17 17 -15 44 4 73 16 24 15 26 -17 56 -26 25 -30 32 -18 40
11 7 11 9 -3 9 -10 0 -18 -7 -18 -15z"/>
<path d="M312 747 c-23 -24 -29 -71 -12 -97 7 -11 8 -3 4 25 -3 22 -3 37 2 33
4 -4 14 -3 21 4 11 9 16 9 22 -1 6 -10 10 -9 14 3 8 20 -25 26 -40 6 -8 -9
-12 -10 -13 -3 0 6 7 19 16 28 9 9 14 18 12 20 -3 3 -14 -5 -26 -18z"/>
<path d="M480 737 c-29 -36 -40 -78 -15 -57 8 7 14 19 13 28 -2 8 3 17 11 20
8 3 11 0 7 -7 -10 -15 9 -14 22 2 7 8 7 17 -1 28 -11 14 -15 12 -37 -14z m35
3 c3 -5 1 -10 -4 -10 -6 0 -11 5 -11 10 0 6 2 10 4 10 3 0 8 -4 11 -10z"/>
<path d="M590 756 c0 -2 11 -6 25 -8 14 -3 25 -1 25 3 0 5 -11 9 -25 9 -14 0
-25 -2 -25 -4z"/>
<path d="M728 744 c-32 -17 -37 -51 -12 -89 18 -27 13 -31 -16 -15 -25 14 -31
0 -14 -30 14 -23 14 -23 9 -2 -4 13 -2 22 4 22 6 0 11 -9 11 -19 0 -11 5 -23
11 -27 8 -4 7 -9 -2 -15 -10 -6 -10 -9 -2 -9 6 0 15 5 18 10 3 6 15 10 26 10
22 0 26 19 4 21 -8 1 -19 3 -25 4 -5 1 -13 3 -17 4 -4 0 -2 6 4 12 9 9 7 20
-4 44 -18 39 -12 62 19 74 17 7 26 5 36 -7 11 -14 12 -13 12 6 0 26 -22 28
-62 6z"/>
<path d="M860 730 c-14 -11 -34 -20 -45 -20 -19 -1 -19 -2 2 -10 24 -10 24
-47 1 -62 -8 -5 -9 -8 -2 -8 15 0 31 20 36 45 2 13 14 22 33 26 23 5 25 7 8 8
-25 1 -31 16 -10 24 6 2 10 7 7 10 -3 3 -16 -3 -30 -13z"/>
<path d="M560 723 c0 -14 49 -57 57 -50 3 4 1 7 -5 7 -7 0 -12 5 -12 11 0 6 6
9 14 6 21 -8 27 4 10 21 -13 13 -17 13 -24 2 -7 -11 -11 -11 -24 -1 -9 8 -16
9 -16 4z"/>
<path d="M386 698 c-11 -42 -7 -48 30 -48 47 0 41 -25 -6 -26 -23 -1 -41 6
-57 22 -13 13 -23 20 -24 16 0 -4 -2 -15 -4 -24 -2 -11 2 -15 12 -11 12 5 14
1 8 -18 -5 -19 -4 -21 5 -9 10 12 10 10 5 -10 -27 -103 -25 -221 6 -282 21
-41 70 -83 109 -93 l25 -6 0 93 0 93 78 3 77 3 0 52 c0 29 6 59 13 66 10 11 9
12 -2 6 -10 -6 -12 -1 -6 24 4 17 3 31 -2 31 -5 0 -3 27 5 60 9 38 11 65 6 70
-6 6 -10 2 -11 -12 -1 -11 -14 -33 -28 -48 -18 -18 -24 -33 -19 -46 6 -18 6
-18 -9 1 -8 11 -13 24 -10 30 4 5 3 7 -2 3 -4 -4 -17 -2 -28 3 -11 7 -22 7
-26 2 -9 -14 -54 -43 -66 -43 -6 0 -11 12 -10 28 0 21 -5 28 -23 30 -14 2 -22
9 -19 16 3 6 -1 20 -8 29 -12 16 -13 16 -19 -5z m256 -65 c-6 -2 -9 -10 -6
-15 4 -7 2 -8 -4 -4 -18 11 -14 26 6 25 10 0 12 -3 4 -6z m-82 -73 c0 -5 -11
-17 -25 -26 -15 -10 -25 -26 -25 -40 0 -29 16 -40 35 -24 12 10 15 9 15 -4 0
-9 -4 -16 -10 -16 -5 0 -10 -4 -10 -10 0 -5 19 -10 42 -10 39 0 40 1 25 18
-11 12 -17 36 -17 64 0 28 -5 48 -12 51 -7 3 4 6 25 6 34 1 37 -1 36 -26 0
-16 -3 -22 -6 -15 -2 6 -11 12 -19 12 -21 0 -19 -66 2 -74 14 -5 15 -4 4 9 -7
8 -8 15 -2 15 12 0 22 -24 22 -56 0 -23 -3 -24 -70 -24 l-70 0 0 66 c0 52 4
70 18 80 20 16 42 18 42 4z m-112 -50 c15 -1 15 -2 0 -11 -12 -7 -18 -22 -18
-46 0 -43 -12 -37 -15 8 -2 17 -9 35 -16 40 -11 7 -10 9 4 9 9 0 17 6 18 13 0
10 2 10 6 0 2 -7 12 -13 21 -13z m109 -12 c-3 -7 -5 -2 -5 12 0 14 2 19 5 13
2 -7 2 -19 0 -25z m20 -10 c-3 -8 -6 -5 -6 6 -1 11 2 17 5 13 3 -3 4 -12 1
-19z"/>
<path d="M750 630 c0 -5 5 -10 11 -10 5 0 7 5 4 10 -3 6 -8 10 -11 10 -2 0 -4
-4 -4 -10z"/>
<path d="M284 613 c7 -21 5 -22 -25 -16 -28 5 -31 4 -26 -12 6 -13 3 -16 -10
-11 -10 4 -4 -5 12 -18 17 -14 33 -25 38 -26 4 0 7 -11 7 -25 0 -14 4 -25 10
-25 5 0 7 7 3 15 -3 9 3 26 13 38 17 19 17 20 1 8 -15 -12 -20 -11 -38 7 -11
12 -15 22 -10 22 5 0 17 3 27 7 12 4 15 3 10 -5 -4 -7 -5 -12 -2 -12 3 0 9 8
14 18 7 12 4 23 -10 37 -20 20 -20 20 -14 -2z"/>
<path d="M785 620 c3 -5 8 -10 11 -10 2 0 4 5 4 10 0 6 -5 10 -11 10 -5 0 -7
-4 -4 -10z"/>
<path d="M714 515 c1 -33 16 -33 16 0 0 14 -4 25 -9 25 -5 0 -8 -11 -7 -25z"/>
<path d="M255 470 c-3 -5 -1 -10 4 -10 6 0 11 5 11 10 0 6 -2 10 -4 10 -3 0
-8 -4 -11 -10z"/>
<path d="M198 441 c-11 -14 -11 -14 4 -3 14 11 17 10 20 -4 3 -15 4 -15 16 -2
10 13 9 16 -7 21 -12 3 -26 -2 -33 -12z"/>
<path d="M736 452 c-4 -7 0 -19 8 -28 17 -17 19 -11 7 20 -5 14 -10 16 -15 8z"/>
<path d="M775 451 c-3 -5 -1 -12 5 -16 5 -3 10 -1 10 5 0 6 5 8 10 5 6 -3 10
-1 10 4 0 13 -27 14 -35 2z"/>
<path d="M257 428 c-8 -29 -4 -32 11 -8 6 10 8 21 3 24 -5 3 -11 -4 -14 -16z"/>
<path d="M230 396 c0 -2 8 -10 18 -17 15 -13 16 -12 3 4 -13 16 -21 21 -21 13z"/>
<path d="M756 383 c-6 -14 -5 -15 5 -6 7 7 10 15 7 18 -3 3 -9 -2 -12 -12z"/>
<path d="M209 293 c-13 -16 -12 -17 4 -4 16 13 21 21 13 21 -2 0 -10 -8 -17
-17z"/>
<path d="M332 278 c-15 -15 -16 -52 -1 -43 6 4 8 13 5 20 -2 7 1 18 7 24 6 6
9 11 6 11 -3 0 -10 -5 -17 -12z"/>
<path d="M300 239 c0 -19 -26 -39 -38 -27 -6 6 -12 6 -16 -1 -4 -6 0 -11 8
-11 11 0 16 -10 16 -31 0 -35 16 -69 32 -69 7 0 7 4 1 13 -18 22 -22 70 -7 84
13 14 20 53 9 53 -3 0 -5 -5 -5 -11z"/>
<path d="M751 226 c-9 -10 -8 -15 2 -19 8 -3 13 3 13 14 0 23 0 23 -15 5z"/>
<path d="M710 211 c0 -6 5 -13 10 -16 6 -3 10 1 10 9 0 9 -4 16 -10 16 -5 0
-10 -4 -10 -9z"/>
<path d="M631 137 c0 -10 -5 -15 -11 -12 -5 3 -10 1 -10 -5 0 -6 12 -15 26
-20 34 -13 43 -12 23 3 -9 7 -19 21 -22 32 -4 18 -5 18 -6 2z"/>
</g>
</svg>
